<svg width="100" height="100" viewBox="0 0 100 100" fill="none" xmlns="http://www.w3.org/2000/svg">
<path d="M64 82.7H19.6C19.3245 84.4384 18.5386 86.0557 17.3421 87.3465C16.1456 88.6374 14.5925 89.5436 12.88 89.95C13.2487 91.1308 13.9872 92.1619 14.9865 92.8911C15.9858 93.6203 17.193 94.0091 18.43 94H64C65.5136 94.0107 66.9697 93.421 68.0494 92.3601C69.129 91.2992 69.7442 89.8536 69.76 88.34C69.7415 86.8291 69.1249 85.3871 68.0453 84.3299C66.9656 83.2728 65.511 82.6867 64 82.7Z" fill="white" stroke="black" stroke-miterlimit="10"/>
<path d="M19.71 17.21H64C64.7626 17.2421 65.5239 17.1196 66.2379 16.8498C66.952 16.5801 67.6041 16.1687 68.1551 15.6405C68.706 15.1122 69.1445 14.4779 69.444 13.7758C69.7435 13.0737 69.8979 12.3183 69.8979 11.555C69.8979 10.7917 69.7435 10.0363 69.444 9.33417C69.1445 8.63208 68.706 7.99782 68.1551 7.46954C67.6041 6.94126 66.952 6.52989 66.2379 6.26016C65.5239 5.99043 64.7626 5.86792 64 5.9H18.53C17.3966 5.90991 16.2882 6.23385 15.3279 6.83583C14.3675 7.43781 13.5929 8.29424 13.09 9.30999C14.8861 9.75944 16.4939 10.7658 17.683 12.1849C18.8722 13.604 19.5817 15.363 19.71 17.21Z" fill="white" stroke="black" stroke-miterlimit="10"/>
<path d="M19.92 20.3V79.5H64.08C66.1938 79.4991 68.2381 80.2549 69.8431 81.6306C71.448 83.0062 72.5076 84.9109 72.83 87H90.83C91.3603 87.008 91.8869 86.9104 92.3792 86.7129C92.8714 86.5155 93.3195 86.2221 93.6973 85.8499C94.0751 85.4776 94.3751 85.034 94.5799 84.5447C94.7846 84.0555 94.8901 83.5304 94.89 83V17.21C94.8835 16.6838 94.7732 16.1641 94.5655 15.6807C94.3578 15.1972 94.0568 14.7595 93.6796 14.3925C93.3025 14.0256 92.8566 13.7367 92.3677 13.5424C91.8787 13.348 91.3561 13.2521 90.83 13.26H72.72C72.3293 15.2753 71.2347 17.086 69.6317 18.3684C68.0287 19.6507 66.0219 20.3213 63.97 20.26L19.92 20.3Z" fill="#808080" stroke="black" stroke-miterlimit="10"/>
<path d="M10.85 87.07C12.3627 87.0833 13.8188 86.4958 14.8988 85.4365C15.9787 84.3772 16.5942 82.9327 16.61 81.42V17.85C16.61 16.3223 16.0031 14.8573 14.9229 13.7771C13.8427 12.6969 12.3776 12.09 10.85 12.09C9.32235 12.09 7.85727 12.6969 6.77706 13.7771C5.69685 14.8573 5.09 16.3223 5.09 17.85V81.42C5.10583 82.9327 5.72128 84.3772 6.80122 85.4365C7.88115 86.4958 9.33731 87.0833 10.85 87.07Z" fill="white" stroke="black" stroke-miterlimit="10"/>
<path d="M9.79 90.06C10.2302 92.0485 11.3369 93.8269 12.9265 95.1001C14.5162 96.3733 16.4933 97.0648 18.53 97.06H64C66.0283 97.0688 67.9993 96.3876 69.5894 95.1283C71.1794 93.869 72.294 92.1064 72.75 90.13H90.85C92.7372 90.1118 94.5423 89.3555 95.8787 88.0228C97.2151 86.6901 97.9766 84.8872 98 83V17.21C97.9922 16.2803 97.8008 15.3613 97.4369 14.5058C97.0729 13.6503 96.5436 12.875 95.8792 12.2246C95.2149 11.5742 94.4286 11.0614 93.5656 10.7157C92.7025 10.37 91.7797 10.1981 90.85 10.21H72.85C72.4765 8.16488 71.395 6.31652 69.7951 4.98903C68.1951 3.66154 66.1789 2.93967 64.1 2.95H18.53C16.6396 2.93766 14.7944 3.52686 13.261 4.63242C11.7276 5.73798 10.5855 7.30259 10 9.1C7.81686 9.30157 5.78732 10.3099 4.30794 11.928C2.82856 13.546 2.00565 15.6576 2 17.85V81.42C2.03329 83.5589 2.84104 85.6132 4.2735 87.202C5.70596 88.7907 7.66593 89.8062 9.79 90.06ZM64 94H18.43C17.1917 94.0084 15.9836 93.6182 14.9841 92.8871C13.9847 92.156 13.247 91.1227 12.88 89.94C14.5911 89.5342 16.1433 88.6296 17.3396 87.3406C18.536 86.0517 19.3227 84.4366 19.6 82.7H64C65.5127 82.6867 66.9688 83.2742 68.0488 84.3335C69.1287 85.3928 69.7442 86.8373 69.76 88.35C69.7415 89.8618 69.1253 91.3049 68.0459 92.3636C66.9665 93.4223 65.5119 94.0107 64 94ZM72.72 13.26H90.85C91.3761 13.2521 91.8987 13.348 92.3877 13.5424C92.8766 13.7367 93.3225 14.0256 93.6996 14.3926C94.0768 14.7595 94.3778 15.1972 94.5855 15.6807C94.7932 16.1642 94.9035 16.6838 94.91 17.21V83C94.9101 83.5304 94.8046 84.0555 94.5999 84.5447C94.3951 85.034 94.0951 85.4776 93.7173 85.8499C93.3395 86.2221 92.8914 86.5155 92.3992 86.7129C91.9069 86.9104 91.3803 87.008 90.85 87H72.85C72.5211 84.9164 71.4587 83.0188 69.8544 81.6492C68.2501 80.2796 66.2094 79.528 64.1 79.53H19.92V20.3H64C66.0525 20.3524 68.0568 19.6729 69.6543 18.3832C71.2518 17.0934 72.3385 15.2774 72.72 13.26ZM18.53 5.90001H64C64.7626 5.86793 65.5239 5.99044 66.2379 6.26017C66.952 6.5299 67.6041 6.94127 68.1551 7.46955C68.706 7.99782 69.1445 8.63208 69.444 9.33418C69.7435 10.0363 69.8979 10.7917 69.8979 11.555C69.8979 12.3183 69.7435 13.0737 69.444 13.7758C69.1445 14.4779 68.706 15.1122 68.1551 15.6405C67.6041 16.1687 66.952 16.5801 66.2379 16.8498C65.5239 17.1196 64.7626 17.2421 64 17.21H19.71C19.5817 15.363 18.8722 13.604 17.683 12.1849C16.4939 10.7658 14.8861 9.75944 13.09 9.31C13.5929 8.29425 14.3675 7.43781 15.3279 6.83583C16.2882 6.23386 17.3966 5.90992 18.53 5.90001ZM5.09 17.85C5.09 16.3224 5.69685 14.8573 6.77706 13.7771C7.85727 12.6969 9.32235 12.09 10.85 12.09C12.3776 12.09 13.8427 12.6969 14.9229 13.7771C16.0031 14.8573 16.61 16.3224 16.61 17.85V81.42C16.61 82.9476 16.0031 84.4127 14.9229 85.4929C13.8427 86.5731 12.3776 87.18 10.85 87.18C9.32235 87.18 7.85727 86.5731 6.77706 85.4929C5.69685 84.4127 5.09 82.9476 5.09 81.42V17.85Z" fill="white" stroke="black" stroke-miterlimit="10"/>
</svg>
