<svg width="100" height="100" viewBox="0 0 100 100" fill="none" xmlns="http://www.w3.org/2000/svg">
<path d="M36 17.3H80.4C80.6755 15.5616 81.4614 13.9443 82.6579 12.6535C83.8544 11.3626 85.4075 10.4564 87.12 10.05C86.7513 8.86917 86.0128 7.8381 85.0135 7.10889C84.0142 6.37968 82.807 5.99094 81.57 6H36C34.4864 5.98933 33.0303 6.57905 31.9506 7.63995C30.871 8.70085 30.2558 10.1464 30.24 11.66C30.2585 13.1709 30.8751 14.6129 31.9547 15.6701C33.0344 16.7272 34.489 17.3133 36 17.3V17.3Z" fill="white" stroke="black" stroke-miterlimit="10"/>
<path d="M80.29 82.79H36C35.2374 82.7579 34.4761 82.8804 33.7621 83.1502C33.048 83.4199 32.3959 83.8313 31.8449 84.3595C31.294 84.8878 30.8555 85.5221 30.556 86.2242C30.2565 86.9263 30.1021 87.6817 30.1021 88.445C30.1021 89.2083 30.2565 89.9637 30.556 90.6658C30.8555 91.3679 31.294 92.0022 31.8449 92.5305C32.3959 93.0587 33.048 93.4701 33.7621 93.7398C34.4761 94.0096 35.2374 94.1321 36 94.1H81.47C82.6034 94.0901 83.7118 93.7661 84.6721 93.1642C85.6325 92.5622 86.4071 91.7058 86.91 90.69C85.1139 90.2406 83.5061 89.2342 82.317 87.8151C81.1278 86.396 80.4183 84.637 80.29 82.79V82.79Z" fill="white" stroke="black" stroke-miterlimit="10"/>
<path d="M80.08 79.7V20.5H35.92C33.8062 20.5009 31.7619 19.7451 30.1569 18.3694C28.552 16.9938 27.4924 15.0891 27.17 13H9.17C8.63969 12.992 8.11308 13.0896 7.62083 13.2871C7.12859 13.4845 6.68052 13.7779 6.30271 14.1501C5.92489 14.5224 5.62488 14.966 5.42012 15.4553C5.21536 15.9445 5.10994 16.4696 5.11 17V82.79C5.11652 83.3162 5.22678 83.8359 5.43448 84.3193C5.64218 84.8028 5.94322 85.2405 6.32037 85.6075C6.69752 85.9744 7.14336 86.2633 7.63235 86.4576C8.12134 86.652 8.64387 86.7479 9.17 86.74H27.28C27.6707 84.7247 28.7653 82.914 30.3683 81.6316C31.9713 80.3493 33.9781 79.6788 36.03 79.74L80.08 79.7Z" fill="#808080" stroke="black" stroke-miterlimit="10"/>
<path d="M89.15 12.93C87.6373 12.9167 86.1812 13.5042 85.1012 14.5635C84.0213 15.6228 83.4058 17.0673 83.39 18.58V82.15C83.39 83.6776 83.9969 85.1427 85.0771 86.2229C86.1573 87.3031 87.6224 87.91 89.15 87.91C90.6776 87.91 92.1427 87.3031 93.2229 86.2229C94.3031 85.1427 94.91 83.6776 94.91 82.15V18.58C94.8942 17.0673 94.2787 15.6228 93.1988 14.5635C92.1188 13.5042 90.6627 12.9167 89.15 12.93V12.93Z" fill="white" stroke="black" stroke-miterlimit="10"/>
<path d="M90.21 9.94C89.7698 7.95146 88.6631 6.17312 87.0735 4.89993C85.4838 3.62674 83.5067 2.9352 81.47 2.94L36 2.94C33.9717 2.93118 32.0007 3.61237 30.4106 4.87169C28.8206 6.131 27.706 7.89359 27.25 9.87H9.15C7.26278 9.88816 5.45768 10.6446 4.12129 11.9772C2.78489 13.3099 2.02344 15.1128 2 17L2 82.79C2.00783 83.7197 2.1992 84.6387 2.56314 85.4942C2.92709 86.3498 3.45643 87.125 4.12077 87.7754C4.78512 88.4258 5.57139 88.9386 6.43445 89.2843C7.29751 89.63 8.22035 89.8019 9.15 89.79H27.15C27.5235 91.8351 28.605 93.6835 30.2049 95.011C31.8049 96.3385 33.8211 97.0603 35.9 97.05H81.47C83.3603 97.0623 85.2056 96.4731 86.739 95.3676C88.2724 94.262 89.4145 92.6974 90 90.9C92.1831 90.6984 94.2127 89.6901 95.6921 88.072C97.1714 86.454 97.9944 84.3424 98 82.15V18.58C97.9667 16.4411 97.159 14.3868 95.7265 12.798C94.294 11.2093 92.3341 10.1938 90.21 9.94V9.94ZM36 6H81.57C82.8083 5.9916 84.0164 6.38179 85.0159 7.11292C86.0153 7.84404 86.753 8.87731 87.12 10.06C85.4089 10.4658 83.8567 11.3704 82.6604 12.6594C81.464 13.9483 80.6773 15.5634 80.4 17.3H36C34.4873 17.3133 33.0312 16.7259 31.9512 15.6665C30.8713 14.6072 30.2558 13.1627 30.24 11.65C30.2585 10.1382 30.8747 8.69515 31.9541 7.63641C33.0335 6.57766 34.4881 5.98932 36 6V6ZM27.28 86.74H9.15C8.62387 86.7479 8.10134 86.652 7.61235 86.4576C7.12336 86.2633 6.67752 85.9744 6.30037 85.6075C5.92322 85.2405 5.62218 84.8028 5.41448 84.3193C5.20678 83.8359 5.09652 83.3162 5.09 82.79V17C5.08994 16.4696 5.19536 15.9445 5.40012 15.4553C5.60488 14.966 5.90489 14.5224 6.28271 14.1501C6.66052 13.7779 7.10858 13.4845 7.60083 13.2871C8.09308 13.0896 8.61968 12.992 9.15 13H27.15C27.4789 15.0836 28.5413 16.9812 30.1456 18.3508C31.7499 19.7204 33.7906 20.472 35.9 20.47H80.08V79.7H36C33.9475 79.6476 31.9432 80.3271 30.3457 81.6168C28.7482 82.9066 27.6615 84.7226 27.28 86.74V86.74ZM81.47 94.1H36C35.2374 94.1321 34.4761 94.0096 33.7621 93.7398C33.048 93.4701 32.3959 93.0587 31.8449 92.5305C31.294 92.0022 30.8555 91.3679 30.556 90.6658C30.2565 89.9637 30.1021 89.2083 30.1021 88.445C30.1021 87.6817 30.2565 86.9263 30.556 86.2242C30.8555 85.5221 31.294 84.8878 31.8449 84.3595C32.3959 83.8313 33.048 83.4199 33.7621 83.1502C34.4761 82.8804 35.2374 82.7579 36 82.79H80.29C80.4183 84.637 81.1278 86.396 82.317 87.8151C83.5061 89.2342 85.1139 90.2406 86.91 90.69C86.4071 91.7058 85.6325 92.5622 84.6721 93.1642C83.7118 93.7661 82.6034 94.0901 81.47 94.1V94.1ZM94.91 82.15C94.91 83.6776 94.3031 85.1427 93.2229 86.2229C92.1427 87.3031 90.6776 87.91 89.15 87.91C87.6224 87.91 86.1573 87.3031 85.0771 86.2229C83.9969 85.1427 83.39 83.6776 83.39 82.15V18.58C83.39 17.0524 83.9969 15.5873 85.0771 14.5071C86.1573 13.4269 87.6224 12.82 89.15 12.82C90.6776 12.82 92.1427 13.4269 93.2229 14.5071C94.3031 15.5873 94.91 17.0524 94.91 18.58V82.15Z" fill="white" stroke="black" stroke-miterlimit="10"/>
</svg>
