<svg width="102" height="102" viewBox="0 0 102 102" fill="none" xmlns="http://www.w3.org/2000/svg">
<path d="M37.053 18.2774L81.4529 18.3492C81.7312 16.6113 82.5197 14.9953 83.7183 13.7064C84.9169 12.4174 86.4715 11.5138 88.1846 11.1101C87.8178 9.9287 87.081 8.89644 86.0829 8.16561C85.0848 7.43479 83.8782 7.04409 82.6412 7.05115L37.0712 6.9774C35.5576 6.96428 34.1006 7.55163 33.0192 8.61079C31.9378 9.66994 31.3204 11.1145 31.3021 12.6281C31.3181 14.139 31.9324 15.582 33.0103 16.6409C34.0882 17.6998 35.542 18.2883 37.053 18.2774Z" fill="white" stroke="black" stroke-miterlimit="10"/>
<path d="M81.2369 83.839L36.947 83.7673C36.1844 83.734 35.4229 83.8553 34.7084 84.1238C33.9939 84.3924 33.3412 84.8027 32.7893 85.3301C32.2375 85.8575 31.7981 86.4911 31.4974 87.1927C31.1968 87.8943 31.0412 88.6494 31.04 89.4127C31.0387 90.176 31.1919 90.9317 31.4903 91.6343C31.7886 92.3369 32.226 92.9718 32.7761 93.501C33.3262 94.0302 33.9777 94.4426 34.6913 94.7135C35.4049 94.9844 36.166 95.1081 36.9287 95.0773L82.3986 95.1509C83.532 95.1428 84.6409 94.8206 85.6022 94.2202C86.5636 93.6198 87.3396 92.7646 87.8441 91.7497C86.0488 91.2973 84.4426 90.2884 83.2558 88.8674C82.0689 87.4464 81.3622 85.6862 81.2369 83.839Z" fill="white" stroke="black" stroke-miterlimit="10"/>
<path d="M81.0319 80.7486L81.1277 21.5487L36.9678 21.4772C34.8539 21.4747 32.8109 20.7156 31.2082 19.3373C29.6054 17.9591 28.549 16.0527 28.2299 13.9631L10.2299 13.934C9.69964 13.9251 9.17289 14.0219 8.68032 14.2185C8.18775 14.4152 7.73921 14.7078 7.36079 15.0795C6.98238 15.4511 6.68165 15.8942 6.4761 16.3832C6.27054 16.8721 6.16428 17.397 6.16348 17.9274L6.057 83.7173C6.06266 84.2435 6.17209 84.7633 6.379 85.2471C6.58592 85.7309 6.88625 86.1692 7.26281 86.5367C7.63936 86.9042 8.08473 87.1939 8.57341 87.389C9.06208 87.5842 9.58445 87.6809 10.1106 87.6739L28.2206 87.7032C28.6145 85.6885 29.7121 83.8796 31.3171 82.5998C32.9222 81.32 34.9301 80.6528 36.9819 80.7173L81.0319 80.7486Z" fill="white" stroke="black" stroke-miterlimit="10"/>
<path d="M90.21 13.9934C88.6973 13.9776 87.2402 14.5628 86.1585 15.6203C85.0769 16.6779 84.4591 18.1214 84.4408 19.6341L84.3379 83.204C84.3355 84.7316 84.9399 86.1977 86.0184 87.2797C87.0969 88.3616 88.561 88.9708 90.0886 88.9733C91.6162 88.9758 93.0823 88.3713 94.1643 87.2928C95.2462 86.2144 95.8554 84.7503 95.8579 83.2226L95.9608 19.6527C95.9474 18.14 95.3343 16.6945 94.2561 15.6334C93.1779 14.5724 91.7227 13.9825 90.21 13.9934Z" fill="white" stroke="black" stroke-miterlimit="10"/>
<path d="M91.2748 11.0051C90.8378 9.01587 89.734 7.23575 88.1464 5.95998C86.5588 4.68422 84.5828 3.98948 82.5461 3.99099L37.0762 3.9174C35.0479 3.90529 33.0758 4.58329 31.4837 5.84003C29.8916 7.09677 28.7742 8.85756 28.315 10.8332L10.215 10.8039C8.32776 10.819 6.52144 11.5725 5.18289 12.903C3.84434 14.2335 3.07997 16.0352 3.05348 17.9223L2.947 83.7123C2.95332 84.642 3.14321 85.5613 3.50576 86.4174C3.86832 87.2735 4.3964 88.0496 5.0597 88.7011C5.72299 89.3526 6.50843 89.8666 7.37093 90.2137C8.23342 90.5609 9.15599 90.7342 10.0857 90.7238L28.0856 90.753C28.4558 92.7987 29.5343 94.6488 31.1321 95.9789C32.7299 97.3089 34.7449 98.0341 36.8239 98.0271L82.3938 98.1009C84.2841 98.1163 86.1304 97.5301 87.6656 96.427C89.2007 95.3239 90.3453 93.7611 90.9338 91.9647C93.1172 91.7666 95.1484 90.7616 96.6304 89.1459C98.1124 87.5302 98.9387 85.42 98.9479 83.2276L99.0508 19.6577C99.021 17.5187 98.2165 15.4631 96.7867 13.8721C95.3568 12.281 93.3984 11.2624 91.2748 11.0051ZM37.0712 6.97739L82.6412 7.05115C83.8795 7.04474 85.087 7.43689 86.0852 8.16963C87.0835 8.90238 87.8196 9.93683 88.1846 11.1201C86.4728 11.5231 84.9192 12.4253 83.7208 13.7123C82.5224 14.9993 81.733 16.6131 81.4529 18.3492L37.0529 18.2774C35.5402 18.2883 34.085 17.6984 33.0068 16.6374C31.9286 15.5763 31.3155 14.1307 31.3021 12.6181C31.323 11.1063 31.9416 9.66424 33.0227 8.60724C34.1038 7.55024 35.5594 6.96426 37.0712 6.97739ZM28.2206 87.7032L10.0906 87.6738C9.56445 87.6809 9.04208 87.5841 8.5534 87.389C8.06473 87.1938 7.61936 86.9042 7.2428 86.5367C6.86625 86.1691 6.56591 85.7309 6.359 85.2471C6.15208 84.7633 6.04266 84.2434 6.03699 83.7173L6.14347 17.9273C6.14427 17.397 6.25054 16.8721 6.45609 16.3831C6.66164 15.8942 6.96237 15.451 7.34079 15.0794C7.7192 14.7078 8.16774 14.4152 8.66031 14.2185C9.15288 14.0218 9.67964 13.9251 10.2099 13.9339L28.2099 13.9631C28.5355 16.0472 29.5947 17.9465 31.1968 19.3187C32.7989 20.6909 34.8384 21.4458 36.9478 21.4472L81.1278 21.5187L81.0319 80.7486L36.952 80.6773C34.8995 80.6216 32.8942 81.2978 31.2946 82.585C29.6949 83.8721 28.6053 85.6863 28.2206 87.7032ZM82.3986 95.1509L36.9286 95.0773C36.166 95.1081 35.4049 94.9844 34.6913 94.7135C33.9777 94.4426 33.3262 94.0302 32.7761 93.501C32.226 92.9718 31.7886 92.3369 31.4902 91.6343C31.1919 90.9317 31.0387 90.176 31.04 89.4127C31.0412 88.6494 31.1968 87.8943 31.4974 87.1927C31.7981 86.491 32.2375 85.8575 32.7893 85.3301C33.3412 84.8027 33.9939 84.3924 34.7084 84.1238C35.4229 83.8553 36.1844 83.734 36.947 83.7673L81.2369 83.839C81.3622 85.6862 82.0689 87.4464 83.2557 88.8674C84.4426 90.2884 86.0488 91.2973 87.8441 91.7497C87.3396 92.7646 86.5636 93.6198 85.6022 94.2202C84.6409 94.8206 83.532 95.1428 82.3986 95.1509ZM95.8579 83.2226C95.8554 84.7503 95.2462 86.2144 94.1643 87.2928C93.0823 88.3713 91.6162 88.9758 90.0886 88.9733C88.561 88.9708 87.0969 88.3616 86.0184 87.2797C84.9399 86.1977 84.3355 84.7316 84.3379 83.204L84.4408 19.6341C84.4433 18.1064 85.0525 16.6423 86.1345 15.5639C87.2164 14.4854 88.6825 13.8809 90.2101 13.8834C91.7378 13.8859 93.2019 14.4951 94.2803 15.5771C95.3588 16.659 95.9633 18.1251 95.9608 19.6527L95.8579 83.2226Z" fill="white" stroke="black" stroke-miterlimit="10"/>
</svg>
