<svg width="102" height="102" viewBox="0 0 102 102" fill="none" xmlns="http://www.w3.org/2000/svg">
<path d="M83.6339 36.8466L83.8424 81.2461C85.582 81.5135 87.203 82.2918 88.4994 83.4822C89.7959 84.6726 90.7094 86.2215 91.1238 87.932C92.3029 87.5578 93.3305 86.8145 94.055 85.8118C94.7795 84.8091 95.1626 83.6001 95.1477 82.3631L94.9338 36.7936C94.9373 35.2799 94.3408 33.8266 93.2748 32.7519C92.2089 31.6773 90.7604 31.069 89.2468 31.0602C87.736 31.0858 86.2969 31.7091 85.2448 32.7937C84.1927 33.8783 83.6135 35.3357 83.6339 36.8466V36.8466Z" fill="white" stroke="black" stroke-miterlimit="10"/>
<path d="M18.3526 81.4436L18.1446 37.1541C18.1731 36.3913 18.0471 35.6307 17.774 34.9179C17.5009 34.2051 17.0865 33.5549 16.5556 33.0064C16.0247 32.4579 15.3884 32.0225 14.6849 31.7263C13.9814 31.4301 13.2253 31.2793 12.462 31.2829C11.6987 31.2864 10.944 31.4444 10.2433 31.7472C9.54266 32.05 8.91047 32.4913 8.38478 33.0448C7.8591 33.5982 7.45079 34.2523 7.18441 34.9676C6.91804 35.6829 6.79911 36.4447 6.83476 37.2072L7.04824 82.6767C7.06347 83.81 7.39261 84.9169 7.99909 85.8744C8.60557 86.8319 9.46564 87.6025 10.4837 88.1006C10.9247 86.3025 11.9235 84.69 13.337 83.4942C14.7505 82.2984 16.5062 81.5806 18.3526 81.4436V81.4436Z" fill="white" stroke="black" stroke-miterlimit="10"/>
<path d="M21.4415 81.2191L80.6409 80.9412L80.4336 36.7817C80.4228 34.6679 81.169 32.62 82.5371 31.0086C83.9052 29.3973 85.8049 28.3288 87.8924 27.9965L87.8079 9.99674C87.8134 9.46639 87.7133 8.94026 87.5135 8.44894C87.3138 7.95762 87.0183 7.51094 86.6443 7.13488C86.2703 6.75882 85.8253 6.46089 85.335 6.25843C84.8448 6.05597 84.3193 5.95301 83.7889 5.95556L17.9996 6.26443C17.4735 6.27342 16.9543 6.38613 16.4718 6.59609C15.9893 6.80605 15.553 7.10915 15.1879 7.48802C14.8227 7.86689 14.5359 8.31408 14.3439 8.80397C14.1518 9.29387 14.0583 9.81684 14.0687 10.3429L14.1537 28.4527C16.1709 28.8339 17.9866 29.9201 19.2765 31.517C20.5664 33.114 21.2464 35.1176 21.1947 37.1698L21.4415 81.2191Z" fill="white" stroke="black" stroke-miterlimit="10"/>
<path d="M88.2534 89.9755C88.2596 88.4628 87.6653 87.0094 86.6009 85.9345C85.5366 84.8595 84.0891 84.2509 82.5764 84.2421L19.0071 84.5406C17.4795 84.5477 16.0173 85.1615 14.9421 86.2467C13.867 87.332 13.267 88.7999 13.2742 90.3275C13.2814 91.8552 13.8951 93.3174 14.9804 94.3925C16.0657 95.4676 17.5336 96.0676 19.0612 96.0604L82.6305 95.762C84.1431 95.7391 85.5847 95.1168 86.639 94.0319C87.6932 92.947 88.2738 91.4881 88.2534 89.9755V89.9755Z" fill="white" stroke="black" stroke-miterlimit="10"/>
<path d="M91.2483 91.0215C93.2348 90.572 95.0079 89.4569 96.2736 87.8613C97.5393 86.2657 98.2216 84.2853 98.2072 82.2487L97.9938 36.7792C97.993 34.7509 97.3026 32.7831 96.0358 31.199C94.7691 29.6148 93.0013 28.5086 91.0227 28.0618L90.9378 9.96204C90.9108 8.07493 90.1459 6.27341 88.807 4.94328C87.4681 3.61315 85.6615 2.86017 83.7743 2.8456L17.985 3.15447C17.0554 3.16666 16.1373 3.36235 15.2835 3.7303C14.4297 4.09825 13.6569 4.63123 13.0096 5.29862C12.3623 5.96602 11.8533 6.75469 11.5116 7.61936C11.1699 8.48403 11.0024 9.40767 11.0187 10.3372L11.1032 28.3371C9.05982 28.7201 7.21655 29.8103 5.89659 31.4165C4.57663 33.0226 3.86423 35.0422 3.88432 37.121L4.09826 82.6905C4.09479 84.5809 4.69265 86.4234 5.8054 87.9516C6.91814 89.4798 8.48809 90.6145 10.2882 91.1916C10.5001 93.3737 11.5179 95.3985 13.1429 96.8703C14.7679 98.3421 16.8833 99.155 19.0757 99.1504L82.645 98.852C84.7837 98.8086 86.8342 97.9912 88.4162 96.5513C89.9983 95.1114 91.0045 93.1467 91.2483 91.0215V91.0215ZM94.9338 36.7936L95.1477 82.3631C95.1619 83.6013 94.7774 84.8113 94.051 85.8141C93.3246 86.817 92.2948 87.5596 91.1138 87.9321C90.7 86.2229 89.7881 84.675 88.4935 83.4847C87.199 82.2944 85.5802 81.5153 83.8424 81.2461L83.6339 36.8466C83.6135 35.334 84.1941 33.8751 85.2483 32.7902C86.3026 31.7053 87.7442 31.0831 89.2568 31.0602C90.7687 31.0715 92.2146 31.681 93.2784 32.7554C94.3422 33.8298 94.9374 35.2816 94.9338 36.7936V36.7936ZM14.1537 28.4527L14.0686 10.3229C14.0582 9.79684 14.1517 9.27387 14.3438 8.78397C14.5358 8.29408 14.8226 7.84688 15.1878 7.46802C15.5529 7.08915 15.9893 6.78605 16.4717 6.57609C16.9542 6.36612 17.4734 6.25342 17.9995 6.24443L83.7888 5.93556C84.3192 5.93301 84.8447 6.03596 85.335 6.23842C85.8252 6.44089 86.2702 6.73881 86.6442 7.11487C87.0182 7.49094 87.3137 7.93762 87.5135 8.42894C87.7132 8.92025 87.8133 9.44639 87.8078 9.97674L87.8923 27.9765C85.8103 28.3152 83.9177 29.3865 82.5556 30.9972C81.1936 32.6079 80.4516 34.6521 80.4635 36.7615L80.6709 80.941L21.4415 81.2191L21.2346 37.1396C21.2773 35.0868 20.5885 33.0858 19.2912 31.4943C17.994 29.9029 16.173 28.8247 14.1537 28.4527V28.4527ZM7.04823 82.6767L6.83476 37.2072C6.7991 36.4447 6.91804 35.6829 7.18441 34.9676C7.45079 34.2523 7.85909 33.5982 8.38478 33.0448C8.91046 32.4913 9.54266 32.05 10.2433 31.7472C10.944 31.4444 11.6987 31.2864 12.462 31.2828C13.2253 31.2793 13.9814 31.4301 14.6849 31.7263C15.3884 32.0225 16.0247 32.4579 16.5556 33.0064C17.0865 33.5549 17.5009 34.2051 17.774 34.9179C18.0471 35.6307 18.1731 36.3913 18.1446 37.1541L18.3526 81.4436C16.5062 81.5806 14.7505 82.2983 13.337 83.4942C11.9235 84.69 10.9247 86.3024 10.4837 88.1006C9.46563 87.6025 8.60556 86.8319 7.99909 85.8744C7.39261 84.9169 7.06347 83.81 7.04823 82.6767V82.6767ZM19.0612 96.0604C17.5336 96.0676 16.0657 95.4676 14.9804 94.3925C13.8951 93.3174 13.2814 91.8552 13.2742 90.3275C13.2671 88.7999 13.867 87.332 14.9421 86.2467C16.0173 85.1615 17.4795 84.5477 19.0071 84.5406L82.5764 84.2421C84.104 84.2349 85.572 84.8349 86.6572 85.91C87.7425 86.9852 88.3562 88.4474 88.3634 89.975C88.3706 91.5026 87.7706 92.9706 86.6955 94.0558C85.6203 95.1411 84.1581 95.7548 82.6305 95.762L19.0612 96.0604Z" fill="white" stroke="black" stroke-miterlimit="10"/>
</svg>
