<svg width="32" height="32" viewBox="0 0 32 32" fill="none" xmlns="http://www.w3.org/2000/svg">
<g clip-path="url(#clip0_159_256)">
<path d="M29.1257 7.125C28.8274 7.125 28.5412 7.00647 28.3302 6.7955C28.1193 6.58452 28.0007 6.29837 28.0007 6C28.0007 5.70163 28.1193 5.41548 28.3302 5.2045C28.5412 4.99353 28.8274 4.875 29.1257 4.875H30.0007V2H18.0007V4.875H18.8757C19.1741 4.875 19.4602 4.99353 19.6712 5.2045C19.8822 5.41548 20.0007 5.70163 20.0007 6C20.0007 6.29837 19.8822 6.58452 19.6712 6.7955C19.4602 7.00647 19.1741 7.125 18.8757 7.125H18.0007V10H30.0007V7.125H29.1257Z" fill="white"/>
<path d="M22.0007 13V16H6.00073V10H15.0007V8H6.18503C6.39044 7.41672 6.77138 6.91133 7.27554 6.55323C7.77969 6.19512 8.38234 6.00187 9.00073 6H15.0007V4H9.00073C7.67511 4.00151 6.40422 4.52878 5.46686 5.46613C4.52951 6.40349 4.00224 7.67438 4.00073 9V21C4.00445 22.0748 4.3551 23.1197 5.00051 23.9792C5.64592 24.8386 6.55159 25.4667 7.58273 25.77L5.77003 30H7.94583L9.66003 26H18.3412L20.0555 30H22.2313L20.4186 25.77C21.4498 25.4667 22.3555 24.8387 23.0009 23.9792C23.6463 23.1197 23.997 22.0748 24.0007 21V13H22.0007ZM22.0007 20H19.0007V22H21.8164C21.611 22.5833 21.2301 23.0887 20.7259 23.4468C20.2218 23.8049 19.6191 23.9981 19.0007 24H9.00073C8.38234 23.9981 7.77969 23.8049 7.27554 23.4468C6.77138 23.0887 6.39044 22.5833 6.18503 22H9.00073V20H6.00073V18H22.0007V20Z" fill="white"/>
</g>
<defs>
<clipPath id="clip0_159_256">
<rect width="32" height="32" fill="white"/>
</clipPath>
</defs>
</svg>
