<svg width="117" height="35" viewBox="0 0 117 35" fill="none" xmlns="http://www.w3.org/2000/svg">
<g clip-path="url(#clip0_11_91)">
<g filter="url(#filter0_d_11_91)">
<path d="M11.1528 19.6836C10.6938 19.6836 10.2593 19.7007 9.84912 19.7349C9.44385 19.769 9.07275 19.8081 8.73584 19.8521C8.40381 19.896 8.11328 19.9399 7.86426 19.9839C7.62012 20.0229 7.43213 20.0522 7.30029 20.0718C7.30029 20.0669 7.29297 20.0352 7.27832 19.9766C7.26855 19.918 7.25391 19.8423 7.23438 19.7495C7.21484 19.6567 7.19775 19.5591 7.18311 19.4565C7.16846 19.3491 7.16113 19.2563 7.16113 19.1782C7.16113 19.0171 7.23193 18.8999 7.37354 18.8267C7.52002 18.7485 7.71777 18.6973 7.9668 18.6729C8.21582 18.6436 8.50635 18.6338 8.83838 18.6436C9.17041 18.6484 9.52686 18.6509 9.90771 18.6509H12.0537C12.2783 18.6509 12.5542 18.6509 12.8813 18.6509C13.2085 18.6509 13.5723 18.6436 13.9727 18.6289C14.3779 18.6143 14.8101 18.5898 15.269 18.5557C15.7329 18.5215 16.2065 18.4727 16.6899 18.4092C16.6899 18.4141 16.6973 18.4409 16.7119 18.4897C16.7266 18.5337 16.7412 18.5947 16.7559 18.6729C16.7705 18.7461 16.7852 18.8315 16.7998 18.9292C16.8145 19.022 16.8218 19.1196 16.8218 19.2222C16.8218 19.3442 16.7778 19.4395 16.6899 19.5078C16.6069 19.5762 16.4946 19.6274 16.353 19.6616C16.2114 19.6909 16.0479 19.7104 15.8623 19.7202C15.6816 19.7251 15.4912 19.7275 15.291 19.7275C14.7344 19.7275 14.2632 19.7227 13.8774 19.7129C13.4917 19.7031 13.1597 19.6934 12.8813 19.6836V26.6929C12.8813 27.0054 12.8887 27.2812 12.9033 27.5205C12.9229 27.7598 12.9448 27.9697 12.9692 28.1504C12.9937 28.3262 13.0181 28.4751 13.0425 28.5972C13.0669 28.7144 13.0864 28.8096 13.1011 28.8828C13.0278 28.9219 12.9473 28.9585 12.8594 28.9927C12.7715 29.022 12.6787 29.0464 12.5811 29.0659C12.4883 29.0903 12.3955 29.1074 12.3027 29.1172C12.21 29.127 12.1221 29.1318 12.0391 29.1318C11.9121 29.1318 11.7925 29.1196 11.6802 29.0952C11.5728 29.0708 11.48 29.0317 11.4019 28.978C11.3237 28.9194 11.2627 28.8438 11.2188 28.751C11.1748 28.6582 11.1528 28.541 11.1528 28.3994V19.6836ZM21.3848 28.3555C21.3848 28.3555 21.3506 28.3774 21.2822 28.4214C21.2188 28.4604 21.1284 28.5117 21.0112 28.5752C20.8989 28.6387 20.7646 28.7095 20.6084 28.7876C20.457 28.8608 20.2886 28.9316 20.103 29C19.9224 29.0635 19.7319 29.1172 19.5317 29.1611C19.3364 29.2051 19.1387 29.2271 18.9385 29.2271C18.6211 29.2271 18.3184 29.1831 18.0303 29.0952C17.7422 29.0122 17.4883 28.8804 17.2686 28.6997C17.0537 28.519 16.8804 28.292 16.7485 28.0186C16.6216 27.7451 16.5581 27.418 16.5581 27.0371C16.5581 26.6172 16.6509 26.2607 16.8364 25.9678C17.0269 25.6748 17.2881 25.438 17.6201 25.2573C17.957 25.0718 18.3574 24.9399 18.8213 24.8618C19.2852 24.7788 19.7954 24.7373 20.3521 24.7373H21.3848V24.188C21.3848 23.9048 21.3726 23.6338 21.3481 23.375C21.3286 23.1113 21.2773 22.8818 21.1943 22.6865C21.1162 22.4912 20.999 22.335 20.8428 22.2178C20.6914 22.1006 20.4863 22.042 20.2275 22.042C19.9785 22.042 19.7295 22.0884 19.4805 22.1812C19.2314 22.269 18.9873 22.3813 18.748 22.5181C18.5088 22.6548 18.2793 22.8062 18.0596 22.9722C17.8398 23.1333 17.6396 23.2871 17.459 23.4336L16.8584 22.6279C16.7852 22.54 16.7485 22.4497 16.7485 22.3569C16.7485 22.1958 16.8486 22.0493 17.0488 21.9175C17.2539 21.7856 17.5078 21.6733 17.8105 21.5806C18.1182 21.4829 18.4478 21.4072 18.7993 21.3535C19.1509 21.2998 19.478 21.2729 19.7808 21.2729C20.23 21.2729 20.6548 21.3267 21.0552 21.4341C21.4556 21.5415 21.8047 21.7124 22.1025 21.9468C22.4053 22.1763 22.6445 22.4766 22.8203 22.8477C22.9961 23.2139 23.084 23.6606 23.084 24.188V28.2676H24.3584V28.8169C24.2754 28.8608 24.1606 28.9023 24.0142 28.9414C23.8726 28.9805 23.7139 29.0146 23.5381 29.0439C23.3623 29.0732 23.1768 29.0952 22.9814 29.1099C22.791 29.1245 22.6079 29.1318 22.4321 29.1318C22.3149 29.1318 22.1953 29.1245 22.0732 29.1099C21.9512 29.0952 21.8389 29.061 21.7363 29.0073C21.6387 28.9585 21.5557 28.8901 21.4873 28.8022C21.4238 28.7095 21.3896 28.585 21.3848 28.4287V28.3555ZM19.4512 28.1431C19.6221 28.1431 19.8174 28.1211 20.0371 28.0771C20.2617 28.0283 20.4741 27.9771 20.6743 27.9233C20.9087 27.8599 21.1455 27.7842 21.3848 27.6963V25.6382H20.1543C19.9688 25.6382 19.7637 25.6553 19.5391 25.6895C19.3193 25.7236 19.1118 25.7896 18.9165 25.8872C18.7261 25.98 18.5649 26.1118 18.4331 26.2827C18.3013 26.4536 18.2354 26.6782 18.2354 26.9565C18.2354 27.1323 18.2622 27.2935 18.3159 27.4399C18.3696 27.5815 18.4478 27.7061 18.5503 27.8135C18.6528 27.916 18.7798 27.9966 18.9312 28.0552C19.0825 28.1138 19.2559 28.1431 19.4512 28.1431ZM21.6704 18.9585C21.6704 19.2271 21.6265 19.4639 21.5386 19.6689C21.4507 19.8691 21.3286 20.0376 21.1724 20.1743C21.0161 20.311 20.833 20.416 20.623 20.4893C20.4131 20.5576 20.186 20.5918 19.9419 20.5918C19.6978 20.5918 19.4707 20.5576 19.2607 20.4893C19.0508 20.416 18.8677 20.311 18.7114 20.1743C18.5552 20.0376 18.4331 19.8691 18.3452 19.6689C18.2573 19.4639 18.2134 19.2271 18.2134 18.9585C18.2134 18.6948 18.2573 18.4629 18.3452 18.2627C18.4331 18.0576 18.5552 17.8867 18.7114 17.75C18.8677 17.6084 19.0508 17.5034 19.2607 17.4351C19.4707 17.3618 19.6978 17.3252 19.9419 17.3252C20.186 17.3252 20.4131 17.3618 20.623 17.4351C20.833 17.5034 21.0161 17.6084 21.1724 17.75C21.3286 17.8867 21.4507 18.0576 21.5386 18.2627C21.6265 18.4629 21.6704 18.6948 21.6704 18.9585ZM20.8574 18.9585C20.8574 18.7974 20.833 18.6606 20.7842 18.5483C20.7402 18.4312 20.6768 18.3384 20.5938 18.27C20.5107 18.1968 20.4131 18.1431 20.3008 18.1089C20.1885 18.0747 20.0688 18.0576 19.9419 18.0576C19.8149 18.0576 19.6953 18.0747 19.583 18.1089C19.4707 18.1431 19.373 18.1968 19.29 18.27C19.207 18.3384 19.1411 18.4312 19.0923 18.5483C19.0483 18.6606 19.0264 18.7974 19.0264 18.9585C19.0264 19.1196 19.0483 19.2588 19.0923 19.376C19.1411 19.4883 19.207 19.5811 19.29 19.6543C19.373 19.7227 19.4707 19.7739 19.583 19.8081C19.6953 19.8423 19.8149 19.8594 19.9419 19.8594C20.0688 19.8594 20.1885 19.8423 20.3008 19.8081C20.4131 19.7739 20.5107 19.7227 20.5938 19.6543C20.6768 19.5811 20.7402 19.4883 20.7842 19.376C20.833 19.2588 20.8574 19.1196 20.8574 18.9585ZM27.3687 24.0781C27.3687 24.7324 27.5103 25.2451 27.7935 25.6162C28.0767 25.9824 28.5137 26.1655 29.1045 26.1655C29.6953 26.1655 30.1323 25.9824 30.4155 25.6162C30.7036 25.2451 30.8477 24.7324 30.8477 24.0781C30.8477 23.4238 30.7061 22.916 30.4229 22.5547C30.1396 22.1934 29.7002 22.0127 29.1045 22.0127C28.5137 22.0127 28.0767 22.1934 27.7935 22.5547C27.5103 22.916 27.3687 23.4238 27.3687 24.0781ZM26.3359 29.9888C26.5166 30.2622 26.7119 30.5039 26.9219 30.7139C27.1367 30.9287 27.3735 31.1094 27.6323 31.2559C27.8911 31.4023 28.1743 31.5122 28.4819 31.5854C28.7944 31.6636 29.1338 31.7026 29.5 31.7026C29.6904 31.7026 29.9053 31.688 30.1445 31.6587C30.3887 31.6294 30.6182 31.5732 30.833 31.4902C31.0479 31.4072 31.2285 31.29 31.375 31.1387C31.5215 30.9922 31.5947 30.7993 31.5947 30.5601C31.5947 30.3696 31.5117 30.2183 31.3457 30.106C31.1846 29.9937 30.9697 29.9009 30.7012 29.8276C30.4375 29.7544 30.1348 29.6958 29.793 29.6519C29.4512 29.6079 29.1021 29.5591 28.7456 29.5054C28.3892 29.4517 28.04 29.3857 27.6982 29.3076C27.3564 29.2295 27.0513 29.1245 26.7827 28.9927C26.519 28.856 26.3042 28.6826 26.1382 28.4727C25.9771 28.2627 25.8965 27.999 25.8965 27.6816C25.8965 27.4863 25.9331 27.3228 26.0063 27.1909C26.0796 27.0542 26.1724 26.9395 26.2847 26.8467C26.397 26.7539 26.519 26.6733 26.6509 26.605C26.7827 26.5366 26.9072 26.4707 27.0244 26.4072C26.5947 26.1631 26.2554 25.8457 26.0063 25.4551C25.7622 25.0596 25.6401 24.6006 25.6401 24.0781C25.6401 23.6436 25.728 23.2529 25.9038 22.9062C26.0796 22.5596 26.3237 22.2666 26.6362 22.0273C26.9487 21.7832 27.3149 21.5977 27.7349 21.4707C28.1548 21.3389 28.6113 21.2729 29.1045 21.2729C29.7246 21.2729 30.2861 21.3779 30.7891 21.5879C31.292 21.793 31.6973 22.0835 32.0049 22.4595L32.437 21.9175C32.5981 21.7222 32.7422 21.5635 32.8691 21.4414C33.001 21.3145 33.1255 21.2168 33.2427 21.1484C33.3599 21.0801 33.4746 21.0337 33.5869 21.0093C33.7041 20.9849 33.8311 20.9727 33.9678 20.9727C34.0312 20.9727 34.1021 20.9824 34.1802 21.002C34.2632 21.0166 34.3389 21.0435 34.4072 21.0825C34.4756 21.1216 34.5342 21.1729 34.583 21.2363C34.6318 21.2949 34.6562 21.3682 34.6562 21.4561V22.4448C34.3193 22.4448 34.0337 22.4473 33.7993 22.4521C33.5649 22.457 33.3623 22.479 33.1914 22.5181C33.0205 22.5522 32.8667 22.6084 32.73 22.6865C32.5981 22.7646 32.4663 22.8745 32.3345 23.0161C32.4077 23.1821 32.4639 23.3506 32.5029 23.5215C32.5469 23.6924 32.5688 23.8828 32.5688 24.0928C32.5688 24.5273 32.481 24.918 32.3052 25.2646C32.1294 25.6064 31.8853 25.8994 31.5728 26.1436C31.2651 26.3877 30.8989 26.5757 30.4741 26.7075C30.0542 26.8345 29.5977 26.8979 29.1045 26.8979C28.8408 26.8979 28.5894 26.8809 28.3501 26.8467C28.1157 26.8125 27.8887 26.7612 27.6689 26.6929C27.4834 26.7905 27.3369 26.8955 27.2295 27.0078C27.1221 27.1152 27.0684 27.2251 27.0684 27.3374C27.0684 27.5327 27.1538 27.6841 27.3247 27.7915C27.5005 27.894 27.73 27.9746 28.0132 28.0332C28.3013 28.0918 28.6284 28.1357 28.9946 28.165C29.3608 28.1943 29.7319 28.231 30.1079 28.2749C30.4888 28.3188 30.8623 28.3774 31.2285 28.4507C31.5947 28.5239 31.9194 28.6362 32.2026 28.7876C32.4907 28.9341 32.7202 29.127 32.8911 29.3662C33.0669 29.6055 33.1548 29.9131 33.1548 30.2891C33.1548 30.6797 33.0449 31.019 32.8252 31.3071C32.6055 31.6001 32.3149 31.8418 31.9536 32.0322C31.5923 32.2227 31.1797 32.3643 30.7158 32.457C30.252 32.5547 29.7759 32.6035 29.2876 32.6035C28.9458 32.6035 28.6016 32.5815 28.2549 32.5376C27.9131 32.4937 27.5811 32.4326 27.2588 32.3545C26.9365 32.2764 26.6362 32.1812 26.3579 32.0688C26.0796 31.9614 25.8379 31.8418 25.6328 31.71C25.4277 31.583 25.2642 31.4463 25.1421 31.2998C25.0249 31.1533 24.9663 31.002 24.9663 30.8457C24.9663 30.7725 24.9907 30.7041 25.0396 30.6406C25.0933 30.5771 25.1738 30.5112 25.2812 30.4429C25.3936 30.3794 25.5352 30.3086 25.7061 30.2305C25.8818 30.1572 26.0918 30.0767 26.3359 29.9888ZM42.9546 26.7954C42.9546 27.0981 42.9619 27.3643 42.9766 27.5938C42.9961 27.8232 43.0156 28.0234 43.0352 28.1943C43.0596 28.3652 43.084 28.5093 43.1084 28.6265C43.1328 28.7388 43.1523 28.8291 43.167 28.8975C43.0986 28.9365 43.0205 28.9707 42.9326 29C42.8447 29.0244 42.752 29.0464 42.6543 29.0659C42.5615 29.0903 42.4688 29.1074 42.376 29.1172C42.2832 29.127 42.1978 29.1318 42.1196 29.1318C41.9927 29.1318 41.8779 29.1196 41.7754 29.0952C41.6729 29.0757 41.5825 29.0391 41.5044 28.9854C41.4263 28.9316 41.3652 28.8608 41.3213 28.7729C41.2822 28.6802 41.2627 28.5654 41.2627 28.4287V23.646C41.2627 23.4458 41.2554 23.2676 41.2407 23.1113C41.2261 22.9551 41.1895 22.8232 41.1309 22.7158C41.0771 22.6035 40.9917 22.5181 40.8745 22.4595C40.7622 22.4009 40.606 22.3716 40.4058 22.3716C40.2739 22.3716 40.125 22.3813 39.959 22.4009C39.793 22.4204 39.6245 22.4473 39.4536 22.4814C39.2827 22.5107 39.1167 22.5449 38.9556 22.584C38.7944 22.6182 38.6504 22.6523 38.5234 22.6865C38.3965 22.7158 38.2939 22.7402 38.2158 22.7598C38.1426 22.7793 38.1084 22.7891 38.1133 22.7891V26.7954C38.1133 27.0981 38.1206 27.3643 38.1353 27.5938C38.1499 27.8232 38.167 28.0234 38.1865 28.1943C38.2109 28.3652 38.2354 28.5093 38.2598 28.6265C38.2842 28.7388 38.3037 28.8291 38.3184 28.8975C38.25 28.9365 38.1719 28.9707 38.084 29C38.001 29.0244 37.9106 29.0464 37.813 29.0659C37.7202 29.0903 37.625 29.1074 37.5273 29.1172C37.4346 29.127 37.3491 29.1318 37.271 29.1318C37.144 29.1318 37.0293 29.1196 36.9268 29.0952C36.8242 29.0757 36.7339 29.0391 36.6558 28.9854C36.5776 28.9316 36.5166 28.8608 36.4727 28.7729C36.4336 28.6802 36.4141 28.5654 36.4141 28.4287V22.2324H35.125V21.6831C35.2275 21.6392 35.3716 21.5977 35.5571 21.5586C35.7427 21.5195 35.9453 21.4878 36.165 21.4634C36.3896 21.439 36.6167 21.4194 36.8462 21.4048C37.0806 21.3901 37.293 21.3828 37.4834 21.3828C37.5859 21.3828 37.6763 21.3853 37.7544 21.3901C37.8325 21.395 37.8984 21.4097 37.9521 21.4341C38.0059 21.4585 38.0449 21.4976 38.0693 21.5513C38.0986 21.6001 38.1133 21.6733 38.1133 21.771V22.1299C38.1133 22.1348 38.1548 22.1177 38.2378 22.0786C38.3257 22.0347 38.4429 21.981 38.5894 21.9175C38.7407 21.854 38.9141 21.7856 39.1094 21.7124C39.3096 21.6392 39.5195 21.5708 39.7393 21.5073C39.9639 21.439 40.1934 21.3828 40.4277 21.3389C40.667 21.2949 40.8989 21.2729 41.1235 21.2729C41.2944 21.2729 41.4629 21.2876 41.6289 21.3169C41.7949 21.3413 41.9487 21.3853 42.0903 21.4487C42.2368 21.5122 42.3662 21.6001 42.4785 21.7124C42.5957 21.8247 42.686 21.9639 42.7495 22.1299C42.7495 22.1348 42.7935 22.1177 42.8813 22.0786C42.9692 22.0347 43.0889 21.981 43.2402 21.9175C43.3916 21.854 43.5674 21.7856 43.7676 21.7124C43.9678 21.6392 44.1802 21.5708 44.4048 21.5073C44.6343 21.439 44.8662 21.3828 45.1006 21.3389C45.3398 21.2949 45.5742 21.2729 45.8037 21.2729C46.2334 21.2729 46.5801 21.3291 46.8438 21.4414C47.1074 21.5488 47.3101 21.7026 47.4517 21.9028C47.5933 22.103 47.686 22.3423 47.73 22.6206C47.7788 22.8989 47.8032 23.2065 47.8032 23.5435V28.2676H49.0776V28.8169C48.9946 28.8608 48.8799 28.9023 48.7334 28.9414C48.5918 28.9805 48.4331 29.0146 48.2573 29.0439C48.0815 29.0732 47.8984 29.0952 47.708 29.1099C47.5176 29.1245 47.3345 29.1318 47.1587 29.1318C47.0073 29.1318 46.8682 29.1221 46.7412 29.1025C46.6143 29.0879 46.502 29.0537 46.4043 29C46.3115 28.9512 46.2383 28.8828 46.1846 28.7949C46.1309 28.7021 46.104 28.5801 46.104 28.4287V23.646C46.104 23.4458 46.0967 23.2676 46.082 23.1113C46.0674 22.9551 46.0308 22.8232 45.9722 22.7158C45.9185 22.6035 45.833 22.5181 45.7158 22.4595C45.6035 22.4009 45.4497 22.3716 45.2544 22.3716C45.1274 22.3716 44.9541 22.3887 44.7344 22.4229C44.5146 22.4521 44.2852 22.4888 44.0459 22.5327C43.8115 22.5718 43.5894 22.6133 43.3794 22.6572C43.1694 22.7012 43.0132 22.7354 42.9106 22.7598C42.9399 23.0039 42.9546 23.2651 42.9546 23.5435V26.7954ZM55.2373 28.3555C55.2373 28.3555 55.2031 28.3774 55.1348 28.4214C55.0713 28.4604 54.981 28.5117 54.8638 28.5752C54.7515 28.6387 54.6172 28.7095 54.4609 28.7876C54.3096 28.8608 54.1411 28.9316 53.9556 29C53.7749 29.0635 53.5845 29.1172 53.3843 29.1611C53.189 29.2051 52.9912 29.2271 52.791 29.2271C52.4736 29.2271 52.1709 29.1831 51.8828 29.0952C51.5947 29.0122 51.3408 28.8804 51.1211 28.6997C50.9062 28.519 50.7329 28.292 50.6011 28.0186C50.4741 27.7451 50.4106 27.418 50.4106 27.0371C50.4106 26.6172 50.5034 26.2607 50.689 25.9678C50.8794 25.6748 51.1406 25.438 51.4727 25.2573C51.8096 25.0718 52.21 24.9399 52.6738 24.8618C53.1377 24.7788 53.6479 24.7373 54.2046 24.7373H55.2373V24.188C55.2373 23.9048 55.2251 23.6338 55.2007 23.375C55.1812 23.1113 55.1299 22.8818 55.0469 22.6865C54.9688 22.4912 54.8516 22.335 54.6953 22.2178C54.5439 22.1006 54.3389 22.042 54.0801 22.042C53.8311 22.042 53.582 22.0884 53.333 22.1812C53.084 22.269 52.8398 22.3813 52.6006 22.5181C52.3613 22.6548 52.1318 22.8062 51.9121 22.9722C51.6924 23.1333 51.4922 23.2871 51.3115 23.4336L50.7109 22.6279C50.6377 22.54 50.6011 22.4497 50.6011 22.3569C50.6011 22.1958 50.7012 22.0493 50.9014 21.9175C51.1064 21.7856 51.3604 21.6733 51.6631 21.5806C51.9707 21.4829 52.3003 21.4072 52.6519 21.3535C53.0034 21.2998 53.3306 21.2729 53.6333 21.2729C54.0825 21.2729 54.5073 21.3267 54.9077 21.4341C55.3081 21.5415 55.6572 21.7124 55.9551 21.9468C56.2578 22.1763 56.4971 22.4766 56.6729 22.8477C56.8486 23.2139 56.9365 23.6606 56.9365 24.188V28.2676H58.2109V28.8169C58.1279 28.8608 58.0132 28.9023 57.8667 28.9414C57.7251 28.9805 57.5664 29.0146 57.3906 29.0439C57.2148 29.0732 57.0293 29.0952 56.834 29.1099C56.6436 29.1245 56.4604 29.1318 56.2847 29.1318C56.1675 29.1318 56.0479 29.1245 55.9258 29.1099C55.8037 29.0952 55.6914 29.061 55.5889 29.0073C55.4912 28.9585 55.4082 28.8901 55.3398 28.8022C55.2764 28.7095 55.2422 28.585 55.2373 28.4287V28.3555ZM53.3037 28.1431C53.4746 28.1431 53.6699 28.1211 53.8896 28.0771C54.1143 28.0283 54.3267 27.9771 54.5269 27.9233C54.7612 27.8599 54.998 27.7842 55.2373 27.6963V25.6382H54.0068C53.8213 25.6382 53.6162 25.6553 53.3916 25.6895C53.1719 25.7236 52.9644 25.7896 52.769 25.8872C52.5786 25.98 52.4175 26.1118 52.2856 26.2827C52.1538 26.4536 52.0879 26.6782 52.0879 26.9565C52.0879 27.1323 52.1147 27.2935 52.1685 27.4399C52.2222 27.5815 52.3003 27.7061 52.4028 27.8135C52.5054 27.916 52.6323 27.9966 52.7837 28.0552C52.9351 28.1138 53.1084 28.1431 53.3037 28.1431ZM52.4028 17.75C52.5249 17.75 52.6372 17.772 52.7397 17.8159C52.8472 17.855 52.9375 17.9087 53.0107 17.9771C53.084 18.0454 53.1401 18.1284 53.1792 18.2261C53.2231 18.3188 53.2451 18.4165 53.2451 18.519C53.2451 18.7437 53.167 18.9316 53.0107 19.083C52.8545 19.2344 52.6519 19.3101 52.4028 19.3101C52.1636 19.3101 51.9683 19.2344 51.8169 19.083C51.6704 18.9316 51.5972 18.7437 51.5972 18.519C51.5972 18.3091 51.6704 18.1284 51.8169 17.9771C51.9683 17.8257 52.1636 17.75 52.4028 17.75ZM55.2739 17.75C55.396 17.75 55.5083 17.772 55.6108 17.8159C55.7134 17.855 55.8013 17.9087 55.8745 17.9771C55.9478 18.0454 56.0039 18.1284 56.043 18.2261C56.0869 18.3188 56.1089 18.4165 56.1089 18.519C56.1089 18.7437 56.0308 18.9316 55.8745 19.083C55.7231 19.2344 55.5229 19.3101 55.2739 19.3101C55.0298 19.3101 54.832 19.2344 54.6807 19.083C54.5342 18.9316 54.4609 18.7437 54.4609 18.519C54.4609 18.3091 54.5342 18.1284 54.6807 17.9771C54.832 17.8257 55.0298 17.75 55.2739 17.75ZM59.8735 27.2275C60.0054 27.3252 60.1641 27.4424 60.3496 27.5791C60.54 27.7158 60.7476 27.8477 60.9722 27.9746C61.1968 28.0967 61.4336 28.2041 61.6826 28.2969C61.9365 28.3848 62.1929 28.4287 62.4517 28.4287C62.6128 28.4287 62.7666 28.4067 62.9131 28.3628C63.0645 28.314 63.1987 28.2432 63.3159 28.1504C63.4331 28.0576 63.5259 27.9453 63.5942 27.8135C63.6626 27.6768 63.6968 27.5229 63.6968 27.3521C63.6968 27.1519 63.6309 26.9761 63.499 26.8247C63.3721 26.6733 63.2134 26.5391 63.0229 26.4219C62.8374 26.3047 62.6372 26.2021 62.4224 26.1143C62.2075 26.0215 62.0171 25.9385 61.8511 25.8652C61.563 25.7383 61.2749 25.6064 60.9868 25.4697C60.7036 25.333 60.4473 25.1719 60.2178 24.9863C59.9932 24.7959 59.8076 24.5713 59.6611 24.3125C59.5195 24.0537 59.4487 23.7363 59.4487 23.3604C59.4487 22.9844 59.5415 22.6646 59.7271 22.4009C59.9175 22.1372 60.1616 21.9224 60.4595 21.7563C60.7622 21.5854 61.0991 21.4634 61.4702 21.3901C61.8413 21.312 62.2075 21.2729 62.5688 21.2729C62.7935 21.2729 63.0303 21.2827 63.2793 21.3022C63.5332 21.3218 63.7651 21.356 63.9751 21.4048C64.1899 21.4487 64.3657 21.5073 64.5024 21.5806C64.644 21.6538 64.7148 21.7417 64.7148 21.8442C64.7148 21.8833 64.7002 21.9346 64.6709 21.998L64.1729 22.9575C64.0801 22.8989 63.9531 22.8232 63.792 22.7305C63.6357 22.6328 63.4575 22.54 63.2573 22.4521C63.0571 22.3643 62.8423 22.2886 62.6128 22.2251C62.3882 22.1616 62.1587 22.1299 61.9243 22.1299C61.5874 22.1299 61.3115 22.208 61.0967 22.3643C60.8818 22.5205 60.7744 22.7427 60.7744 23.0308C60.7744 23.2554 60.8379 23.4507 60.9648 23.6167C61.0918 23.7827 61.2578 23.9316 61.4629 24.0635C61.6729 24.1904 61.9097 24.3076 62.1733 24.415C62.4419 24.5176 62.7153 24.625 62.9937 24.7373C63.272 24.8496 63.543 24.9692 63.8066 25.0962C64.0752 25.2231 64.312 25.3721 64.5171 25.543C64.7271 25.709 64.8955 25.9043 65.0225 26.1289C65.1494 26.3486 65.2129 26.6099 65.2129 26.9126C65.2129 27.3423 65.1201 27.7036 64.9346 27.9966C64.749 28.2896 64.5073 28.5288 64.2095 28.7144C63.9165 28.895 63.5869 29.0244 63.2207 29.1025C62.8594 29.1855 62.5029 29.2271 62.1514 29.2271C61.8486 29.2271 61.5264 29.1929 61.1846 29.1245C60.8428 29.061 60.5278 28.9805 60.2397 28.8828C59.9517 28.7803 59.7124 28.6704 59.522 28.5532C59.3364 28.436 59.2437 28.3262 59.2437 28.2236C59.2437 28.1602 59.2583 28.0991 59.2876 28.0405L59.8735 27.2275ZM72.0244 21.5V21.8149C72.0244 22.0347 71.9756 22.1885 71.8779 22.2764C71.7852 22.3594 71.6338 22.4009 71.4238 22.4009H69.4756V26.6929C69.4756 27.2397 69.5757 27.6548 69.7759 27.938C69.9761 28.2163 70.2812 28.3555 70.6914 28.3555C70.8721 28.3555 71.0576 28.3335 71.248 28.2896C71.4385 28.2456 71.6094 28.1992 71.7607 28.1504C71.9121 28.1016 72.0342 28.0601 72.127 28.0259C72.2246 27.9868 72.271 27.9722 72.2661 27.9819L72.5005 28.4873C72.3296 28.5947 72.1587 28.6948 71.9878 28.7876C71.8169 28.8755 71.6362 28.9512 71.4458 29.0146C71.2554 29.083 71.0503 29.1343 70.8306 29.1685C70.6108 29.2075 70.3643 29.2271 70.0908 29.2271C69.7344 29.2271 69.4121 29.1709 69.124 29.0586C68.8408 28.9512 68.5991 28.7949 68.3989 28.5898C68.1987 28.3848 68.0449 28.1333 67.9375 27.8354C67.8301 27.5376 67.7764 27.2007 67.7764 26.8247V22.4009H66.2603V22.0713C66.2603 21.8516 66.3066 21.7026 66.3994 21.6245C66.4971 21.5415 66.6509 21.5 66.8608 21.5H67.7764V19.7568C67.7764 19.625 67.7959 19.5151 67.835 19.4272C67.8789 19.3345 67.9399 19.2637 68.0181 19.2148C68.0962 19.1611 68.1865 19.1245 68.2891 19.105C68.3916 19.0806 68.5063 19.0684 68.6333 19.0684C68.7114 19.0684 68.7969 19.0732 68.8896 19.083C68.9873 19.0928 69.0825 19.1074 69.1753 19.127C69.2729 19.1416 69.3633 19.1636 69.4463 19.1929C69.5342 19.2222 69.6123 19.2563 69.6807 19.2954C69.666 19.3638 69.6465 19.4565 69.6221 19.5737C69.5977 19.686 69.5732 19.8301 69.5488 20.0059C69.5293 20.1816 69.5122 20.394 69.4976 20.6431C69.4829 20.8872 69.4756 21.1729 69.4756 21.5H72.0244ZM78.4697 28.3555C78.4697 28.3555 78.4355 28.3774 78.3672 28.4214C78.3037 28.4604 78.2134 28.5117 78.0962 28.5752C77.9839 28.6387 77.8496 28.7095 77.6934 28.7876C77.542 28.8608 77.3735 28.9316 77.188 29C77.0073 29.0635 76.8169 29.1172 76.6167 29.1611C76.4214 29.2051 76.2236 29.2271 76.0234 29.2271C75.7061 29.2271 75.4033 29.1831 75.1152 29.0952C74.8271 29.0122 74.5732 28.8804 74.3535 28.6997C74.1387 28.519 73.9653 28.292 73.8335 28.0186C73.7065 27.7451 73.6431 27.418 73.6431 27.0371C73.6431 26.6172 73.7358 26.2607 73.9214 25.9678C74.1118 25.6748 74.373 25.438 74.7051 25.2573C75.042 25.0718 75.4424 24.9399 75.9062 24.8618C76.3701 24.7788 76.8804 24.7373 77.437 24.7373H78.4697V24.188C78.4697 23.9048 78.4575 23.6338 78.4331 23.375C78.4136 23.1113 78.3623 22.8818 78.2793 22.6865C78.2012 22.4912 78.084 22.335 77.9277 22.2178C77.7764 22.1006 77.5713 22.042 77.3125 22.042C77.0635 22.042 76.8145 22.0884 76.5654 22.1812C76.3164 22.269 76.0723 22.3813 75.833 22.5181C75.5938 22.6548 75.3643 22.8062 75.1445 22.9722C74.9248 23.1333 74.7246 23.2871 74.5439 23.4336L73.9434 22.6279C73.8701 22.54 73.8335 22.4497 73.8335 22.3569C73.8335 22.1958 73.9336 22.0493 74.1338 21.9175C74.3389 21.7856 74.5928 21.6733 74.8955 21.5806C75.2031 21.4829 75.5327 21.4072 75.8843 21.3535C76.2358 21.2998 76.563 21.2729 76.8657 21.2729C77.3149 21.2729 77.7397 21.3267 78.1401 21.4341C78.5405 21.5415 78.8896 21.7124 79.1875 21.9468C79.4902 22.1763 79.7295 22.4766 79.9053 22.8477C80.0811 23.2139 80.1689 23.6606 80.1689 24.188V28.2676H81.4434V28.8169C81.3604 28.8608 81.2456 28.9023 81.0991 28.9414C80.9575 28.9805 80.7988 29.0146 80.623 29.0439C80.4473 29.0732 80.2617 29.0952 80.0664 29.1099C79.876 29.1245 79.6929 29.1318 79.5171 29.1318C79.3999 29.1318 79.2803 29.1245 79.1582 29.1099C79.0361 29.0952 78.9238 29.061 78.8213 29.0073C78.7236 28.9585 78.6406 28.8901 78.5723 28.8022C78.5088 28.7095 78.4746 28.585 78.4697 28.4287V28.3555ZM76.5361 28.1431C76.707 28.1431 76.9023 28.1211 77.1221 28.0771C77.3467 28.0283 77.5591 27.9771 77.7593 27.9233C77.9937 27.8599 78.2305 27.7842 78.4697 27.6963V25.6382H77.2393C77.0537 25.6382 76.8486 25.6553 76.624 25.6895C76.4043 25.7236 76.1968 25.7896 76.0015 25.8872C75.811 25.98 75.6499 26.1118 75.5181 26.2827C75.3862 26.4536 75.3203 26.6782 75.3203 26.9565C75.3203 27.1323 75.3472 27.2935 75.4009 27.4399C75.4546 27.5815 75.5327 27.7061 75.6353 27.8135C75.7378 27.916 75.8647 27.9966 76.0161 28.0552C76.1675 28.1138 76.3408 28.1431 76.5361 28.1431ZM82.1758 21.6978C82.2783 21.6538 82.4224 21.6123 82.6079 21.5732C82.7935 21.5342 82.9961 21.5024 83.2158 21.478C83.4404 21.4536 83.6675 21.4341 83.897 21.4194C84.1313 21.4048 84.3438 21.3975 84.5342 21.3975C84.6367 21.3975 84.7271 21.3999 84.8052 21.4048C84.8833 21.4097 84.9492 21.4243 85.0029 21.4487C85.0566 21.4731 85.0957 21.5122 85.1201 21.5659C85.1494 21.6147 85.1641 21.688 85.1641 21.7856V23.5435L86.0942 22.2178C86.3286 21.8955 86.5874 21.6587 86.8706 21.5073C87.1587 21.3511 87.4834 21.2729 87.8447 21.2729C87.9082 21.2729 87.9888 21.2778 88.0864 21.2876C88.189 21.2925 88.2866 21.3096 88.3794 21.3389C88.4771 21.3682 88.5601 21.4097 88.6284 21.4634C88.6968 21.5171 88.731 21.5903 88.731 21.6831C88.731 21.7075 88.731 21.7271 88.731 21.7417C88.731 21.7563 88.7261 21.7759 88.7163 21.8003L88.4014 22.833C88.2158 22.7744 88.0474 22.7329 87.896 22.7085C87.7495 22.6841 87.6128 22.6719 87.4858 22.6719C87.2222 22.6719 86.9707 22.7476 86.7314 22.8989C86.4922 23.0454 86.2725 23.2212 86.0723 23.4263C85.8721 23.6265 85.6938 23.8315 85.5376 24.0415C85.3862 24.2466 85.2617 24.4053 85.1641 24.5176V26.7954C85.1641 27.0981 85.1714 27.3643 85.186 27.5938C85.2007 27.8232 85.2178 28.0234 85.2373 28.1943C85.2617 28.3652 85.2861 28.5093 85.3105 28.6265C85.335 28.7388 85.3545 28.8291 85.3691 28.8975C85.3008 28.9365 85.2227 28.9707 85.1348 29C85.0518 29.0244 84.9614 29.0464 84.8638 29.0659C84.771 29.0903 84.6758 29.1074 84.5781 29.1172C84.4854 29.127 84.3999 29.1318 84.3218 29.1318C84.1948 29.1318 84.0801 29.1196 83.9775 29.0952C83.875 29.0757 83.7847 29.0391 83.7065 28.9854C83.6284 28.9316 83.5674 28.8608 83.5234 28.7729C83.4844 28.6802 83.4648 28.5654 83.4648 28.4287V22.2471H82.1758V21.6978ZM90.7305 22.2324H89.4414V21.6831C89.5439 21.6392 89.688 21.5977 89.8735 21.5586C90.0591 21.5195 90.2617 21.4878 90.4814 21.4634C90.7061 21.439 90.9331 21.4194 91.1626 21.4048C91.397 21.3901 91.6094 21.3828 91.7998 21.3828C91.9023 21.3828 91.9927 21.3853 92.0708 21.3901C92.1489 21.395 92.2148 21.4097 92.2686 21.4341C92.3223 21.4585 92.3613 21.4976 92.3857 21.5513C92.415 21.6001 92.4297 21.6733 92.4297 21.771V22.1299C92.5029 22.1055 92.6372 22.0469 92.8325 21.9541C93.0327 21.8613 93.2744 21.7661 93.5576 21.6685C93.8408 21.5659 94.1509 21.4756 94.4878 21.3975C94.8247 21.3145 95.1689 21.2729 95.5205 21.2729C95.9453 21.2729 96.2896 21.3315 96.5532 21.4487C96.8169 21.5659 97.022 21.7295 97.1685 21.9395C97.3149 22.1445 97.4126 22.3887 97.4614 22.6719C97.5151 22.9551 97.542 23.2651 97.542 23.6021V28.2676H98.8164V28.8169C98.7334 28.8608 98.6187 28.9023 98.4722 28.9414C98.3306 28.9805 98.1719 29.0146 97.9961 29.0439C97.8203 29.0732 97.6372 29.0952 97.4468 29.1099C97.2563 29.1245 97.0732 29.1318 96.8975 29.1318C96.7461 29.1318 96.6069 29.1221 96.48 29.1025C96.353 29.0879 96.2432 29.0537 96.1504 29C96.0576 28.9512 95.9844 28.8828 95.9307 28.7949C95.877 28.7021 95.8501 28.5801 95.8501 28.4287V23.7485C95.8501 23.4995 95.8354 23.2871 95.8062 23.1113C95.7817 22.9355 95.7305 22.7915 95.6523 22.6792C95.5791 22.5669 95.4741 22.4863 95.3374 22.4375C95.2056 22.3838 95.0347 22.3569 94.8247 22.3569C94.688 22.3569 94.5366 22.3667 94.3706 22.3862C94.2095 22.4058 94.041 22.4326 93.8652 22.4668C93.6943 22.4961 93.5259 22.5278 93.3599 22.562C93.1987 22.5962 93.0498 22.6304 92.9131 22.6646C92.7812 22.6938 92.6714 22.7207 92.5835 22.7451C92.4956 22.7695 92.4443 22.7842 92.4297 22.7891V26.7954C92.4297 27.0981 92.437 27.3643 92.4517 27.5938C92.4663 27.8232 92.4834 28.0234 92.5029 28.1943C92.5273 28.3652 92.5518 28.5093 92.5762 28.6265C92.6006 28.7388 92.6201 28.8291 92.6348 28.8975C92.5664 28.9365 92.4883 28.9707 92.4004 29C92.3174 29.0244 92.2271 29.0464 92.1294 29.0659C92.0366 29.0903 91.9414 29.1074 91.8438 29.1172C91.751 29.127 91.6655 29.1318 91.5874 29.1318C91.4604 29.1318 91.3457 29.1196 91.2432 29.0952C91.1406 29.0757 91.0503 29.0391 90.9722 28.9854C90.894 28.9316 90.833 28.8608 90.7891 28.7729C90.75 28.6802 90.7305 28.5654 90.7305 28.4287V22.2324ZM104.969 28.3555C104.969 28.3555 104.935 28.3774 104.866 28.4214C104.803 28.4604 104.712 28.5117 104.595 28.5752C104.483 28.6387 104.349 28.7095 104.192 28.7876C104.041 28.8608 103.873 28.9316 103.687 29C103.506 29.0635 103.316 29.1172 103.116 29.1611C102.92 29.2051 102.723 29.2271 102.522 29.2271C102.205 29.2271 101.902 29.1831 101.614 29.0952C101.326 29.0122 101.072 28.8804 100.853 28.6997C100.638 28.519 100.464 28.292 100.333 28.0186C100.206 27.7451 100.142 27.418 100.142 27.0371C100.142 26.6172 100.235 26.2607 100.42 25.9678C100.611 25.6748 100.872 25.438 101.204 25.2573C101.541 25.0718 101.941 24.9399 102.405 24.8618C102.869 24.7788 103.379 24.7373 103.936 24.7373H104.969V24.188C104.969 23.9048 104.957 23.6338 104.932 23.375C104.913 23.1113 104.861 22.8818 104.778 22.6865C104.7 22.4912 104.583 22.335 104.427 22.2178C104.275 22.1006 104.07 22.042 103.812 22.042C103.562 22.042 103.313 22.0884 103.064 22.1812C102.815 22.269 102.571 22.3813 102.332 22.5181C102.093 22.6548 101.863 22.8062 101.644 22.9722C101.424 23.1333 101.224 23.2871 101.043 23.4336L100.442 22.6279C100.369 22.54 100.333 22.4497 100.333 22.3569C100.333 22.1958 100.433 22.0493 100.633 21.9175C100.838 21.7856 101.092 21.6733 101.395 21.5806C101.702 21.4829 102.032 21.4072 102.383 21.3535C102.735 21.2998 103.062 21.2729 103.365 21.2729C103.814 21.2729 104.239 21.3267 104.639 21.4341C105.04 21.5415 105.389 21.7124 105.687 21.9468C105.989 22.1763 106.229 22.4766 106.404 22.8477C106.58 23.2139 106.668 23.6606 106.668 24.188V28.2676H107.942V28.8169C107.859 28.8608 107.745 28.9023 107.598 28.9414C107.457 28.9805 107.298 29.0146 107.122 29.0439C106.946 29.0732 106.761 29.0952 106.565 29.1099C106.375 29.1245 106.192 29.1318 106.016 29.1318C105.899 29.1318 105.779 29.1245 105.657 29.1099C105.535 29.0952 105.423 29.061 105.32 29.0073C105.223 28.9585 105.14 28.8901 105.071 28.8022C105.008 28.7095 104.974 28.585 104.969 28.4287V28.3555ZM103.035 28.1431C103.206 28.1431 103.401 28.1211 103.621 28.0771C103.846 28.0283 104.058 27.9771 104.258 27.9233C104.493 27.8599 104.729 27.7842 104.969 27.6963V25.6382H103.738C103.553 25.6382 103.348 25.6553 103.123 25.6895C102.903 25.7236 102.696 25.7896 102.5 25.8872C102.31 25.98 102.149 26.1118 102.017 26.2827C101.885 26.4536 101.819 26.6782 101.819 26.9565C101.819 27.1323 101.846 27.2935 101.9 27.4399C101.954 27.5815 102.032 27.7061 102.134 27.8135C102.237 27.916 102.364 27.9966 102.515 28.0552C102.667 28.1138 102.84 28.1431 103.035 28.1431Z" fill="#FEAE00"/>
</g>
<g filter="url(#filter1_d_11_91)">
<path d="M43.8867 3.00668H54.0784L50.8603 7.67503L33.8995 7.44266C37.2046 5.56341 39.0202 4.48305 43.8867 3.00668Z" fill="#FEAE00"/>
<path d="M57.8995 3L54.8995 7.67503H58.8995L62.1726 3H57.8995Z" fill="#FEAE00"/>
<path d="M66.3995 3L63.3995 7.67503L66.9997 7.66836L70.3995 3H66.3995Z" fill="#FEAE00"/>
<path d="M72.8995 14.872C72.8995 14.872 35.3555 15.5691 29.1876 13.7101C26.2782 12.8332 29.0453 10.2027 33.8995 7.44266M72.8995 0H55.7365C52.513 0.430965 47.0255 2.05444 43.8867 3.00668M43.8867 3.00668H54.0784L50.8603 7.67503L33.8995 7.44266M43.8867 3.00668C39.0202 4.48305 37.2046 5.56341 33.8995 7.44266M57.8995 3L54.8995 7.67503H58.8995L62.1726 3H57.8995ZM66.3995 3L63.3995 7.67503L66.9997 7.66836L70.3995 3H66.3995Z" stroke="#FEAE00" stroke-width="2"/>
</g>
</g>
<defs>
<filter id="filter0_d_11_91" x="3.16113" y="17.3252" width="108.781" height="23.2783" filterUnits="userSpaceOnUse" color-interpolation-filters="sRGB">
<feFlood flood-opacity="0" result="BackgroundImageFix"/>
<feColorMatrix in="SourceAlpha" type="matrix" values="0 0 0 0 0 0 0 0 0 0 0 0 0 0 0 0 0 0 127 0" result="hardAlpha"/>
<feOffset dy="4"/>
<feGaussianBlur stdDeviation="2"/>
<feComposite in2="hardAlpha" operator="out"/>
<feColorMatrix type="matrix" values="0 0 0 0 0 0 0 0 0 0 0 0 0 0 0 0 0 0 0.25 0"/>
<feBlend mode="normal" in2="BackgroundImageFix" result="effect1_dropShadow_11_91"/>
<feBlend mode="normal" in="SourceGraphic" in2="effect1_dropShadow_11_91" result="shape"/>
</filter>
<filter id="filter1_d_11_91" x="22.9996" y="-1" width="53.9181" height="25" filterUnits="userSpaceOnUse" color-interpolation-filters="sRGB">
<feFlood flood-opacity="0" result="BackgroundImageFix"/>
<feColorMatrix in="SourceAlpha" type="matrix" values="0 0 0 0 0 0 0 0 0 0 0 0 0 0 0 0 0 0 127 0" result="hardAlpha"/>
<feOffset dy="4"/>
<feGaussianBlur stdDeviation="2"/>
<feComposite in2="hardAlpha" operator="out"/>
<feColorMatrix type="matrix" values="0 0 0 0 0 0 0 0 0 0 0 0 0 0 0 0 0 0 0.25 0"/>
<feBlend mode="normal" in2="BackgroundImageFix" result="effect1_dropShadow_11_91"/>
<feBlend mode="normal" in="SourceGraphic" in2="effect1_dropShadow_11_91" result="shape"/>
</filter>
<clipPath id="clip0_11_91">
<rect width="117" height="35" fill="white"/>
</clipPath>
</defs>
</svg>
